<?xml version="1.0" encoding="UTF-8" standalone="no"?>
<!-- Created with Inkscape (http://www.inkscape.org/) -->
<svg xmlns:dc="http://purl.org/dc/elements/1.1/" xmlns:cc="http://creativecommons.org/ns#" xmlns:rdf="http://www.w3.org/1999/02/22-rdf-syntax-ns#" xmlns:svg="http://www.w3.org/2000/svg" xmlns="http://www.w3.org/2000/svg" xmlns:sodipodi="http://sodipodi.sourceforge.net/DTD/sodipodi-0.dtd" xmlns:inkscape="http://www.inkscape.org/namespaces/inkscape" width="83.542702mm" height="105.09859mm" viewBox="0 0 296.01745 372.39659" id="svg2" version="1.1" inkscape:version="0.91 r13725" sodipodi:docname="traffic-control.svg" inkscape:export-filename="/home/algot/Documents/runeman.org/clipart/traffic-control.png" inkscape:export-xdpi="72.503349" inkscape:export-ydpi="72.503349">
<title id="title3407">Traffic Control</title>
<defs id="defs4"/>
<sodipodi:namedview id="base" pagecolor="#ffffff" bordercolor="#666666" borderopacity="1.0" inkscape:pageopacity="0.0" inkscape:pageshadow="2" inkscape:zoom="1.5914062" inkscape:cx="304.53035" inkscape:cy="205.29063" inkscape:document-units="px" inkscape:current-layer="layer1" showgrid="false" showguides="false" fit-margin-top="0" fit-margin-left="0" fit-margin-right="0" fit-margin-bottom="0" inkscape:window-width="1366" inkscape:window-height="712" inkscape:window-x="0" inkscape:window-y="0" inkscape:window-maximized="1"/>
<metadata id="metadata7">
<rdf:RDF>
<cc:Work rdf:about="">
<dc:format>image/svg+xml</dc:format>
<dc:type rdf:resource="http://purl.org/dc/dcmitype/StillImage"/>
<dc:title>Traffic Control</dc:title>
<dc:date>2016-09-14</dc:date>
<dc:creator>
<cc:Agent>
<dc:title>Algot Runeman</dc:title>
</cc:Agent>
</dc:creator>
<dc:rights>
<cc:Agent>
<dc:title>Algot Runeman</dc:title>
</cc:Agent>
</dc:rights>
<dc:publisher>
<cc:Agent>
<dc:title>runeman.org</dc:title>
</cc:Agent>
</dc:publisher>
<dc:identifier>traffic-control.svg</dc:identifier>
<cc:license rdf:resource="http://creativecommons.org/publicdomain/zero/1.0/"/>
</cc:Work>
<cc:License rdf:about="http://creativecommons.org/publicdomain/zero/1.0/">
<cc:permits rdf:resource="http://creativecommons.org/ns#Reproduction"/>
<cc:permits rdf:resource="http://creativecommons.org/ns#Distribution"/>
<cc:permits rdf:resource="http://creativecommons.org/ns#DerivativeWorks"/>
</cc:License>
</rdf:RDF>
</metadata>
<g inkscape:label="Layer 1" inkscape:groupmode="layer" id="layer1" transform="translate(25.671739,-333.83749)">
<path style="fill:#000000;fill-rule:evenodd;stroke:#000000;stroke-width:1px;stroke-linecap:butt;stroke-linejoin:miter;stroke-opacity:1" d="m 98.654885,419.58852 2.513495,-8.16888 1.88513,0 0.62838,-6.91212 -6.91213,-9.42563 0,-3.77025 c 0,0 -6.963507,-1.54652 -7.540501,-4.39863 -0.415329,-2.05299 3.77025,-5.027 3.77025,-5.027 0,0 4.400128,-6.54896 7.540501,-8.79725 2.75145,-1.96985 6.07616,-3.28875 9.42563,-3.77025 4.37357,-0.62872 8.79825,0.82746 13.19587,1.25675 2.09507,0.20452 4.7914,-0.85622 6.28375,0.62838 2.83698,2.82225 -0.62838,7.54049 -0.62838,7.54049 l 12.25332,5.3412 -11.62494,0.94256 0.0762,2.58319 1.8089,3.07218 -1.88513,1.88513 1.88513,4.39863 -1.88513,1.25675 0,3.14187 c 0,0 1.77435,1.92557 1.88513,3.14188 0.16232,1.78224 -0.63351,3.74787 -1.88513,5.027 -0.78888,0.80621 -3.14187,1.25675 -3.14187,1.25675 l 3.77025,8.16887 z" id="path3382" inkscape:connector-curvature="0" sodipodi:nodetypes="ccccccscsssscccccccccssccc"/>
<path style="fill:#000000;fill-rule:evenodd;stroke:#000000;stroke-width:1px;stroke-linecap:butt;stroke-linejoin:miter;stroke-opacity:1" d="m 128.18851,418.33177 11.31075,-1.25675 21.99313,-1.88513 c 0,0 8.88277,-0.89049 12.5675,-3.14187 1.89998,-1.1609 2.19142,-4.73399 4.39863,-5.027 0.74864,-0.0994 1.13659,1.15651 1.88512,1.25675 5.25204,0.70335 9.8505,-4.17821 15.081,-5.027 2.06754,-0.33552 4.21767,0.34435 6.28375,0 7.64451,-1.27409 21.99313,-7.5405 21.99313,-7.5405 l 15.081,-6.91213 2.5135,8.79725 0,2.5135 -13.19587,10.054 -15.70938,10.68238 -6.91212,6.28375 -10.68238,7.5405 -15.081,4.39862 -16.96613,1.88513 -6.91212,1.25675 -1.88513,30.79038 -2.5135,16.96612 -59.067256,2.5135 -3.540501,-1.88512 -3.655375,-6.91213 -5.371625,-30.79037 c 0,0 -8.057577,4.89447 -12.567501,5.027 -1.32416,0.0389 -2.44552,-1.25675 -3.770251,-1.25675 -1.987096,0 -3.721436,2.34166 -5.655375,1.88512 -0.864883,-0.20417 -1.064115,-1.54505 -1.885126,-1.88512 -2.515686,-1.04203 -5.608555,0.92696 -8.168875,0 -3.076422,-1.11382 -5.353662,-3.85009 -7.540501,-6.28375 -2.523851,-2.80871 -5.094878,-5.8416 -6.283751,-9.42563 -1.254724,-3.78254 -0.628375,-11.93913 -0.628375,-11.93913 l -0.628375,-5.027 -3.77025,-4.39862 5.655375,-10.054 1.256751,-14.45263 9.425625,0.62838 3.770251,10.68237 5.027,11.31075 0,11.31075 19.479627,-6.28375 12.567501,-3.77025 16.966127,-1.88512 z" id="path3384" inkscape:connector-curvature="0" sodipodi:nodetypes="cccssssscccccccccccccccccsssssssccccccccccccc"/>
<path style="fill:#000000;fill-rule:evenodd;stroke:#000000;stroke-width:1px;stroke-linecap:butt;stroke-linejoin:miter;stroke-opacity:1" d="m 45.243004,395.71027 0,-11.93913 -0.628375,-3.77025 -6.912125,-6.28375 0,-8.16888 1.25675,-1.88512 -2.5135,-0.62838 0,-5.027 -1.256751,-1.25675 -3.77025,0 -1.25675,-1.25675 -3.141875,1.88513 -2.513501,-0.62838 -5.027,9.42563 c 0,0 3.038011,7.61931 5.655375,10.68237 2.041056,2.38861 7.540501,5.65538 7.540501,5.65538 l 3.770251,4.39862 0,10.05401 10.054001,1.25675 z" id="path3388" inkscape:connector-curvature="0" sodipodi:nodetypes="ccccccccccccccsccccc"/>
<path style="fill:#000000;fill-rule:evenodd;stroke:#000000;stroke-width:1px;stroke-linecap:butt;stroke-linejoin:miter;stroke-opacity:1" d="m 240.03927,398.22377 8.16888,-1.25675 5.027,-1.88513 3.14188,-5.65538 2.5135,-6.91212 2.5135,-5.027 -0.62838,0 7.5405,-9.42563 1.25675,-5.027 -7.5405,4.39863 -8.79725,10.68237 -8.16888,8.16888 -5.65537,1.88512 z" id="path3392" inkscape:connector-curvature="0" sodipodi:nodetypes="cccccccccccccc"/>
<path style="fill:#000000;fill-rule:evenodd;stroke:#000000;stroke-width:1px;stroke-linecap:butt;stroke-linejoin:miter;stroke-opacity:1" d="m 153.95117,488.70898 -62.208982,2.51368 -4.398438,13.19726 0,13.19531 0.628906,40.84375 3.142578,24.50782 L 93,617.52734 l 0.626953,19.47852 c 0,0 -1.083469,8.81694 -0.626953,13.19726 0.516036,4.95142 3.769531,14.45118 3.769531,14.45118 l 6.912109,21.99414 1.88477,0.62695 -6.912113,6.91211 c 0,0 -1.274723,5.37454 0,7.54102 1.093785,1.85896 3.592653,2.51514 5.656253,3.14257 2.41331,0.73376 5.07305,1.15014 7.54101,0.62891 2.56805,-0.54237 5.57245,-1.51441 6.91211,-3.77148 0.64133,-1.08052 0,-3.76954 0,-3.76954 l 4.39844,-5.02734 6.91211,3.76953 c 0,0 4.48723,2.767 6.91211,3.77149 3.42872,1.42032 6.98251,2.84089 10.68164,3.14062 3.36657,0.27279 7.81926,1.27615 10.05469,-1.25586 0.97035,-1.09909 0,-4.39844 0,-4.39844 l -1.25782,-4.39843 -13.82422,-13.19727 3.14258,-3.76953 c 0,0 1.7238,-1.47885 1.88477,-2.51367 0.78402,-5.04023 -5.02735,-14.45313 -5.02735,-14.45313 l 2.51368,-18.84961 2.51367,-53.41211 3.14258,-25.76367 2.51367,-43.35742 -2.51367,-10.68359 1.88476,-4.39844 z m -33.93164,67.23633 1.25781,1.88477 0.62696,16.33789 1.25781,12.56836 -0.62891,25.13476 3.14258,20.73633 -2.51367,22.6211 c 0,0 -3.14258,-6.91142 -3.14258,-3.76954 0,3.14187 -1.25586,-15.08203 -1.25586,-15.08203 l -1.88672,-28.90429 0,-20.73633 z" id="path3394" inkscape:connector-curvature="0" sodipodi:nodetypes="ccccccccsccccsssscccsssccccscccccccccccccccscccc"/>
<path style="fill:#000000;fill-rule:evenodd;stroke:#000000;stroke-width:1px;stroke-linecap:butt;stroke-linejoin:miter;stroke-opacity:1" d="m -20.780116,369.80163 c 0,0 3.630044,20.7743 9.183062,29.41594 6.2185262,9.67731 25.690143,23.04127 25.690143,23.04127 0,0 -17.3836695,-15.30091 -23.5875592,-24.90574 C -14.8792,389.01649 -20.780116,369.80163 -20.780116,369.80163 Z" id="path3399" inkscape:connector-curvature="0" sodipodi:nodetypes="cscsc"/>
<path sodipodi:nodetypes="cscsc" inkscape:connector-curvature="0" id="path3401" d="m -25.359547,389.22703 c 0,0 2.300882,13.16768 5.82063,18.64513 3.941575,6.1339 16.2835485,14.60458 16.2835485,14.60458 0,0 -11.0185395,-9.6984 -14.9508395,-15.78637 -3.413079,-5.28411 -7.153339,-17.46334 -7.153339,-17.46334 z" style="fill:#000000;fill-rule:evenodd;stroke:#000000;stroke-width:0.6338442px;stroke-linecap:butt;stroke-linejoin:miter;stroke-opacity:1"/>
<path sodipodi:nodetypes="cscsc" inkscape:connector-curvature="0" id="path3403" d="m 36.685736,334.22101 c 0,0 16.176051,13.53087 20.883423,22.66074 5.271533,10.22405 7.109255,33.76895 7.109255,33.76895 0,0 -4.55914,-22.70515 -9.775227,-32.88029 -4.527352,-8.83162 -18.217451,-23.5494 -18.217451,-23.5494 z" style="fill:#000000;fill-rule:evenodd;stroke:#000000;stroke-width:1px;stroke-linecap:butt;stroke-linejoin:miter;stroke-opacity:1"/>
<path style="fill:#000000;fill-rule:evenodd;stroke:#000000;stroke-width:0.6338442px;stroke-linecap:butt;stroke-linejoin:miter;stroke-opacity:1" d="m 55.798349,339.96781 c 0,0 10.253098,8.57646 13.23684,14.36339 3.341326,6.48044 4.506155,21.40424 4.506155,21.40424 0,0 -2.889785,-14.39153 -6.195971,-20.84098 -2.869634,-5.59787 -11.547024,-14.92665 -11.547024,-14.92665 z" id="path3405" inkscape:connector-curvature="0" sodipodi:nodetypes="cscsc"/>
</g>
</svg>
